<svg xmlns="http://www.w3.org/2000/svg" version="1.1" xmlns:xlink="http://www.w3.org/1999/xlink" width="512" height="512"><svg width="512" height="512" viewBox="0 0 512 512" fill="none" xmlns="http://www.w3.org/2000/svg">
<rect width="512" height="512" rx="100" fill="white"></rect>
<circle cx="256" cy="300" r="89" fill="black"></circle>
<circle cx="291" cy="271" r="30" fill="white"></circle>
<path d="M176 234.042C176 227.17 168.609 222.834 162.61 226.186L48.6104 289.881C45.7638 291.471 44 294.477 44 297.737V304.263C44 307.523 45.7638 310.529 48.6104 312.119L162.61 375.814C168.609 379.166 176 374.83 176 367.958V361.809C176 358.473 174.154 355.41 171.205 353.852L75.3486 303.188C74.7611 303.476 73.9626 303.323 73.625 302.582C73.3453 301.968 73.5887 301.352 74.0439 301.024V300.975C73.6146 300.666 73.3736 300.1 73.583 299.521L73.625 299.418L73.6816 299.307C74.0457 298.662 74.7927 298.539 75.3496 298.812L171.205 248.148C174.154 246.59 176 243.527 176 240.191V234.042Z" fill="black" stroke="white" stroke-width="2"></path>
<path d="M336 234.042C336 227.17 343.391 222.834 349.39 226.186L463.39 289.881C466.236 291.471 468 294.477 468 297.737V304.263C468 307.523 466.236 310.529 463.39 312.119L349.39 375.814C343.391 379.166 336 374.83 336 367.958V361.809C336 358.473 337.846 355.41 340.795 353.852L436.651 303.188C437.239 303.476 438.037 303.323 438.375 302.582C438.655 301.968 438.411 301.352 437.956 301.024V300.975C438.385 300.666 438.626 300.1 438.417 299.521L438.375 299.418L438.318 299.307C437.954 298.662 437.207 298.539 436.65 298.812L340.795 248.148C337.846 246.59 336 243.527 336 240.191V234.042Z" fill="black" stroke="white" stroke-width="2"></path>
<path d="M264 191.618C264 196.247 260.642 200 256.5 200C252.358 200 249 196.247 249 191.618V132.382C249 127.753 252.358 124 256.5 124C260.642 124 264 127.753 264 132.382V191.618Z" fill="black"></path>
<path d="M308.182 204.059C305.867 208.068 301.082 209.639 297.495 207.568C293.908 205.497 292.876 200.568 295.191 196.559L324.809 145.259C327.124 141.25 331.908 139.679 335.495 141.75C339.082 143.821 340.114 148.75 337.799 152.759L308.182 204.059Z" fill="black"></path>
<path d="M175.191 152.759C172.876 148.75 173.908 143.821 177.495 141.75C181.082 139.679 185.867 141.25 188.182 145.259L217.799 196.559C220.114 200.568 219.082 205.497 215.495 207.568C211.908 209.639 207.124 208.068 204.809 204.059L175.191 152.759Z" fill="black"></path>
</svg><style>@media (prefers-color-scheme: light) { :root { filter: none; } }
@media (prefers-color-scheme: dark) { :root { filter: none; } }
</style></svg>